<svg id="ac80e021-6415-497c-a308-d8395c5f76e4" height="512" viewBox="0 0 64 64" width="512" xmlns="http://www.w3.org/2000/svg" xmlns:xlink="http://www.w3.org/1999/xlink" data-name="flat gardient flaticon"><linearGradient id="a7c9a2c0-c07b-47f1-8c36-f2ff166637dd" gradientUnits="userSpaceOnUse" x1="4" x2="60" y1="32" y2="32"><stop offset="0" stop-color="#00c0ff"/><stop offset="1" stop-color="#5558ff"/></linearGradient><path d="m60 48.13214v6.46753c-.61053 5.28217-6.46674 5.68213-9.96893 2.87585a4.65824 4.65824 0 0 0 -4.02594-.77709c-3.11554.574-6.81641.91461-8.49579-2.1894a15.26526 15.26526 0 0 1 -1.58411-6.52826s-.444-11.1596-.36322-12.46118l7.45648 5.89252-2.88574 3.08765a.73291.73291 0 0 0 -.20184.51452v3.72315a.75694.75694 0 0 0 1.51355.00006v-3.43049l2.39129-2.563 1.796 4.934a.75484.75484 0 0 0 1.42273-.5044l-2.17942-6.0036a.78112.78112 0 0 0 -.34308-.49438c-2.81268-2.22614-9.3247-7.35358-12.06762-9.525a.74451.74451 0 0 0 -.93836 0l-12.06769 9.525a.84365.84365 0 0 0 -.35321.50445l-2.16931 5.99347a.7548.7548 0 0 0 1.42267.50452l1.79608-4.934 2.3913 2.56293v3.43048a.75685.75685 0 0 0 1.51349.00006v-3.72325a.73282.73282 0 0 0 -.20179-.51452l-2.88574-3.08765 7.46655-5.89252c.08075 1.30158-.37329 12.50153-.37329 12.50153a15.24844 15.24844 0 0 1 -1.5841 6.48773c-1.91529 3.54773-6.23065 2.5094-9.61579 2.05853a4.4261 4.4261 0 0 0 -2.88574.898 8.826 8.826 0 0 1 -4.64143 1.76576 5.00574 5.00574 0 0 1 -5.33764-4.5708l.00006-6.64929a39.78405 39.78405 0 0 1 7.31524-23.63068c4.88416-7.4834 14.23926-10.7077 16.24488 2.371l-1.14019 1.86663-1.78589 1.88684-2.93622 2.05841-1.87671-2.916.21192-3.5315a.7531.7531 0 0 0 -1.50345-.09091l-.19171 3.10773-2.9765.23212a.754.754 0 0 0 .1109 1.50341l3.18847-.24212 1.78589 2.805-3.80389 2.67389-4.5708 1.08966a.75745.75745 0 1 0 .35315 1.47314l3.582-.8576-.85767 4.69183-4.79272 2.67383a.75933.75933 0 0 0 .74664 1.32184l5.09546-2.8454a.75529.75529 0 0 0 .38336-.52472l1.06964-5.88245s7.99127-5.61 8.03162-5.64032c0 0 1.96753-2.08869 1.9978-2.129l2.34088-3.8645a.77261.77261 0 0 0 .111-.39356v-6.34662h3.72321v6.34668c-.18787.12042 2.36432 4.00354 2.41144 4.16718.09155.21844 1.9715 2.15326 2.1593 2.32068 1.96655 1.36267 5.93433 4.16174 7.91064 5.53943l1.06952 5.88244a.75539.75539 0 0 0 .38343.52472l5.10553 2.84534a.75677.75677 0 0 0 .73657-1.32178l-4.79273-2.67383-.85766-4.69183 3.58191.8576a.75751.75751 0 0 0 .35321-1.47314l-4.5708-1.08966-3.804-2.66382 1.78601-2.81501 3.18836.24212a.75392.75392 0 0 0 .11108-1.50341l-2.9765-.23212-.19177-3.10767a.7531.7531 0 0 0 -1.50342.09076l.21191 3.53156-1.86664 2.916-2.94635-2.05841-1.78588-1.88683-1.12-1.84631c1.94189-13.211 11.3476-9.81934 16.22467-2.39142a39.06327 39.06327 0 0 1 4.4195 8.02148 42.14021 42.14021 0 0 1 2.90594 15.73039zm-26.14325-43.37701h-3.72321v2.53259h3.72321zm0 4.04608h-3.72321v3.52142h3.72321zm0 5.03491h-3.72321v3.52142h3.72321z" fill="url(#a7c9a2c0-c07b-47f1-8c36-f2ff166637dd)"/></svg>